**ABCDEFGHIJKLMNOPQRSTUVWXYZabcdefghijklmnopqrstuvwxyz**************************
**PARASOLID !"#$%&'()*+,-./:;<=>?@[\]^_`{|}~0123456789**************************
**PART1;
MC=AMD64;
MC_MODEL=Intel64 Family 6 Model 142 Stepping 10, GenuineIntel;
MC_ID=unknown;
OS=Windows_NT;
OS_RELEASE=unknown;
FRU=Parasolid Version 31.0, build 264, 12-10-2018;
APPL=SOLIDWORKS 2019-2019057;
SITE=;
USER=unknown;
FORMAT=text;
GUISE=transmit;
KEY=makeProjectedPlanarWire;
FILE=makeProjectedPlanarWire.x_t;
DATE=Tue Oct 27 22:52:21 2020;
**PART2;
SCH=SCH_3100264_31001;
USFLD_SIZE=0;
**PART3;
**END_OF_HEADER*****************************************************************
T51 : TRANSMIT FILE created by modeller version 310026423 SCH_3100264_31001_1300
6215 0 12 34 CCCCCCI4 mesh1006 0 I8 polyline1008 0 CCCCCCCDI5 owner1040 0 CCCCCC
I13 boundary_mesh1006 0 I17 boundary_polyline1008 0 CCCA16 index_map_offset0 0 1
 dA9 index_map82 0 A17 node_id_index_map82 0 A20 schema_embedding_map82 0 A5 chi
ld12 0 A14 lowest_node_id0 0 1 dA16 mesh_offset_data206 0 Z1 373 0 0 0 0 0 0 0 0
 1e3 1e-8 0 2 0 1 0 3 1 3 4 5 6 0 0 7 8 9 0 0 0 0 0 0 0 13 255 3 118 0 1 0 10 0
 0 7 10 50 255 4 3 0 10 0 0 0 +0 0 0 0 0 1 1 0 0 30 255 5 77 0 8 11 0 0 +-.00866
025403784438 -.005 0 .5 -.866025403784439 0 29 255 6 116 0 9 12 0 -.005773502691
89625 -.01 0 19 8 CCCCCCCA5 owner12 0 Z7 117 0 1 0 0 3 V0 16 255 8 75 0 ?13 0 14
 5 0 0 1 18 255 9 114 0 15 0 16 6 ?1 17 255 15 0 0 0 0 9 17 18 0 13 -18 16 111 0
 19 9 20 12 ?1 17 19 0 21 13 22 16 23 14 0 24 +18 20 108 0 22 16 25 26 ?1 29 12
 113 0 16 26 6 -.0115470053837925 1734723475976805e-33 0 29 26 110 0 20 27 12 -.
00577350269189626 .01 0 29 27 107 0 25 28 26 .00577350269189626 .01 0 18 25 105
 0 29 20 30 27 ?1 29 28 104 0 30 31 27 .01154700538379252 0 0 18 30 102 0 32 25
 33 28 ?1 29 31 101 0 33 34 28 .00577350269189626 -.01 0 18 33 99 0 17 30 35 31
 ?1 29 34 98 0 35 36 31 .00577350269189626 0 0 18 35 96 0 37 33 38 34 ?1 29 36 9
5 0 38 39 34 .00288675134594812 .005 0 18 38 93 0 40 35 41 36 ?1 29 39 92 0 41 4
2 36 -.002886751345948155 .005 0 18 41 90 0 43 38 44 39 ?1 29 42 89 0 44 45 39 -
.00577350269189626 -4033232081646075e-32 0 18 44 87 0 46 41 47 42 ?1 29 45 86 0
 47 48 42 -.002886751345948085 -.005 0 18 47 84 0 49 44 50 45 ?1 29 48 83 0 50 0
 45 .00288675134594819 -.005 0 18 50 81 0 51 47 0 48 ?1 17 51 0 52 49 53 50 37 5
4 0 55 -15 255 52 7 0 51 10 21 17 49 0 52 46 51 47 55 56 0 57 -17 53 0 52 51 40
 35 58 59 0 0 -17 37 0 0 0 0 35 51 54 0 53 +16 54 9 0 ?37 56 0 60 0 0 1 17 55 0
 0 0 0 50 49 56 0 0 +16 56 15 0 ?55 61 54 62 0 0 1 16 61 21 0 ?57 63 56 64 0 0 1
 30 62 17 0 56 60 64 0 +525810109558004e-31 -.005 0 1 105162021911601e-28 0 30 6
0 11 0 54 0 62 0 +.004330127018922225 -.0025 0 .5 .866025403784442 0 30 64 23 0
 61 62 65 0 +-.004330127018922175 -.002500000000000035 0 .500000000000007 -.8660
25403784435 0 30 65 29 0 63 64 66 0 +-.00433012701892221 .002499999999999975 0 -
.5 -.866025403784442 0 16 63 27 0 ?67 68 61 65 0 0 1 30 66 35 0 68 65 69 0 +-172
766178854773e-31 .005 0 -1 -345532357709546e-29 0 16 68 33 0 ?70 59 63 66 0 0 1
 30 69 41 0 59 66 71 0 +.00433012701892219 .0025 0 -.5 .866025403784438 0 16 59
 39 0 ?58 18 68 69 0 0 1 30 71 47 0 18 69 72 0 +-150231459873716e-32 -.01 0 1 -1
50231459873716e-30 0 16 18 45 0 ?17 73 59 71 0 0 1 30 72 53 0 73 71 74 0 +.00866
025403784439 -.005 0 .5 .866025403784439 0 16 73 51 0 ?32 75 18 72 0 0 1 30 74 5
9 0 75 72 76 0 +.00866025403784439 .005 0 -.5 .866025403784439 0 16 75 57 0 ?29
 77 73 74 0 0 1 30 76 65 0 77 74 11 0 +0 .01 0 -1 0 0 16 77 63 0 ?22 14 75 76 0
 0 1 30 11 71 0 14 76 5 0 +-.00866025403784439 .005 0 -.5 -.866025403784439 0 16
 14 69 0 ?19 8 77 11 0 0 1 17 22 0 21 19 29 20 78 77 0 23 +15 21 8 0 17 10 0 17
 29 0 21 22 32 25 79 75 0 78 +17 78 0 0 0 0 25 22 77 0 0 -17 23 0 0 0 0 20 19 14
 0 0 -17 32 0 21 29 17 30 80 73 0 79 +17 79 0 0 0 0 30 29 75 0 0 -17 17 0 21 32
 13 33 15 18 0 80 +17 80 0 0 0 0 33 32 73 0 0 -17 13 0 21 17 19 9 24 8 0 0 +17 2
4 0 0 0 0 16 13 8 0 0 -14 255 10 1 0 ?0 0 52 3 4 +0 0 0 0 3 17 58 0 0 0 0 38 53
 59 0 0 +17 70 0 0 0 0 41 40 68 0 0 +17 40 0 52 53 43 38 70 68 0 58 -17 43 0 52
 40 46 41 67 63 0 70 -17 46 0 52 43 49 44 57 61 0 67 -17 67 0 0 0 0 44 43 63 0 0
 +17 57 0 0 0 0 47 46 61 0 0 +1 0 
